<svg width="420" height="198" viewBox="0 0 420 198" fill="none" xmlns="http://www.w3.org/2000/svg">
<path d="M232.394 116.401H241.961V127.998H185.507V116.401H219.253V99.2174H208.11V112.29H194.969V99.2174H185.928V87.621H241.54V99.2174H232.394V116.401Z" fill="white"/>
<path d="M206.953 157.832H220.199H240.489V169.428H200.015V185.769H227.243V173.54H240.489V197.365H194.023C189.397 197.365 186.769 195.257 186.769 190.829V157.832H206.953Z" fill="white"/>
<path d="M171 136.853H256.363V148.45H220.199L220.199 157.832H206.953L206.953 148.45H171V136.853Z" fill="white"/>
<path d="M420 136.853V148.449H255.792V136.853H370.801V125.573H384.047V136.853H420Z" fill="white"/>
<path d="M359.868 125.572C354.506 125.572 352.929 123.885 352.929 118.825V95.6319H387.831V87.409H352.929V76.0234H394.139C399.605 76.0234 401.077 77.4993 401.077 82.665V105.542H366.175V113.975H402.128V125.572H359.868Z" fill="white"/>
<path d="M317.686 112.253C314.918 115.134 310.972 119.042 307.825 121.607L299.051 111.745C300.612 110.39 304.135 106.588 305.697 104.795C309.945 99.6146 308.883 93.4357 304.603 88.811C299.458 84.9562 294.018 85.1302 288.926 89.3125C283.895 93.995 284.821 101.085 289.018 105.621L305.697 124.148L300.549 129.858L297.658 133L285.903 123.41L277.852 115.64C267.512 103.942 267.942 88.4881 278.41 77.823C289.813 67.0692 307.058 68.161 316.814 79.7052C325.922 91.0941 325.221 104.409 317.686 112.253Z" fill="url(#paint0_linear_1462_158)"/>
<path d="M8.54 3.15023H12.355V5.35523C12.355 7.38523 12.0283 9.31023 11.375 11.1302C10.7217 12.9502 9.71833 14.5486 8.365 15.9252C7.01167 17.2786 5.285 18.2936 3.185 18.9702L0.875 15.2602C2.67167 14.7002 4.13 13.8952 5.25 12.8452C6.39333 11.7952 7.22167 10.6286 7.735 9.34523C8.27167 8.03857 8.54 6.70857 8.54 5.35523V3.15023ZM9.485 3.15023H13.265V5.35523C13.265 6.5919 13.5217 7.8169 14.035 9.03023C14.5483 10.2436 15.3533 11.3402 16.45 12.3202C17.57 13.2769 18.9933 14.0352 20.72 14.5952L18.48 18.2702C16.4267 17.6402 14.735 16.6719 13.405 15.3652C12.075 14.0586 11.0833 12.5419 10.43 10.8152C9.8 9.06523 9.485 7.24523 9.485 5.35523V3.15023ZM2.1 1.92523H19.6V5.63523H2.1V1.92523ZM22.26 0.0702339H26.915V18.8302H22.26V0.0702339ZM25.655 7.35023H31.22V11.1652H25.655V7.35023ZM5.845 20.0902H26.915V32.1302H5.845V20.0902ZM22.365 23.7302H10.43V28.4552H22.365V23.7302ZM41.5073 2.55523H45.3223V7.24523C45.3223 9.34523 45.1356 11.3636 44.7623 13.3002C44.3889 15.2136 43.8173 17.0102 43.0473 18.6902C42.3006 20.3469 41.3323 21.8169 40.1423 23.1002C38.9756 24.3602 37.5873 25.3636 35.9773 26.1102L33.2123 22.2602C34.6356 21.6302 35.8606 20.8019 36.8873 19.7752C37.9373 18.7252 38.8006 17.5352 39.4773 16.2052C40.1539 14.8519 40.6556 13.4169 40.9823 11.9002C41.3323 10.3836 41.5073 8.8319 41.5073 7.24523V2.55523ZM42.4173 2.55523H46.1973V7.24523C46.1973 8.7619 46.3606 10.2436 46.6873 11.6902C47.0139 13.1369 47.5039 14.5019 48.1573 15.7852C48.8339 17.0686 49.6739 18.2119 50.6773 19.2152C51.7039 20.1952 52.9056 20.9769 54.2823 21.5602L51.5873 25.3402C50.0239 24.6169 48.6589 23.6486 47.4923 22.4352C46.3489 21.2219 45.4039 19.8219 44.6573 18.2352C43.9106 16.6252 43.3506 14.8986 42.9773 13.0552C42.6039 11.1886 42.4173 9.2519 42.4173 7.24523V2.55523ZM55.8573 0.000232756H60.5123V32.5152H55.8573V0.000232756ZM74.3851 12.1452H75.9951C76.9051 12.1452 77.7451 12.1336 78.5151 12.1102C79.2851 12.0869 80.0435 12.0402 80.7901 11.9702C81.5368 11.9002 82.3185 11.7836 83.1351 11.6202L83.4851 15.1902C82.6218 15.3536 81.7935 15.4702 81.0001 15.5402C80.2068 15.6102 79.4135 15.6569 78.6201 15.6802C77.8268 15.7036 76.9518 15.7152 75.9951 15.7152H74.3851V12.1452ZM74.3851 1.61023H82.8201V5.21523H78.9701V14.5602H74.3851V1.61023ZM84.3951 12.1452H86.1451C87.5218 12.1452 88.6651 12.1336 89.5751 12.1102C90.5085 12.0869 91.3251 12.0402 92.0251 11.9702C92.7485 11.8769 93.4718 11.7486 94.1951 11.5852L94.5101 15.1552C93.7868 15.3186 93.0518 15.4469 92.3051 15.5402C91.5585 15.6102 90.7068 15.6569 89.7501 15.6802C88.7935 15.7036 87.5918 15.7152 86.1451 15.7152H84.3951V12.1452ZM84.3951 1.61023H93.4251V5.21523H88.9801V14.5602H84.3951V1.61023ZM78.6901 17.7802H101.37V26.5302H83.4501V30.2402H78.7601V23.1702H96.6801V21.3852H78.6901V17.7802ZM78.7601 28.4902H102.28V32.1302H78.7601V28.4902ZM96.7151 0.0702339H101.37V16.5202H96.7151V0.0702339ZM92.1651 6.65023H100.39V10.1152H92.1651V6.65023ZM114.982 2.27523C116.592 2.27523 118.027 2.75357 119.287 3.71023C120.571 4.64357 121.562 5.98523 122.262 7.73523C122.986 9.4619 123.347 11.5036 123.347 13.8602C123.347 16.2402 122.986 18.3052 122.262 20.0552C121.562 21.7819 120.571 23.1236 119.287 24.0802C118.027 25.0136 116.592 25.4802 114.982 25.4802C113.372 25.4802 111.937 25.0136 110.677 24.0802C109.417 23.1236 108.426 21.7819 107.702 20.0552C106.979 18.3052 106.617 16.2402 106.617 13.8602C106.617 11.5036 106.979 9.4619 107.702 7.73523C108.426 5.98523 109.417 4.64357 110.677 3.71023C111.937 2.75357 113.372 2.27523 114.982 2.27523ZM114.982 6.51023C114.212 6.51023 113.524 6.79023 112.917 7.35023C112.334 7.91023 111.879 8.73857 111.552 9.83523C111.226 10.9086 111.062 12.2502 111.062 13.8602C111.062 15.4469 111.226 16.8002 111.552 17.9202C111.879 19.0169 112.334 19.8452 112.917 20.4052C113.524 20.9652 114.212 21.2452 114.982 21.2452C115.799 21.2452 116.499 20.9652 117.082 20.4052C117.666 19.8452 118.121 19.0169 118.447 17.9202C118.774 16.8002 118.937 15.4469 118.937 13.8602C118.937 12.2502 118.774 10.9086 118.447 9.83523C118.121 8.73857 117.666 7.91023 117.082 7.35023C116.499 6.79023 115.799 6.51023 114.982 6.51023ZM128.667 0.000232756H133.322V32.5152H128.667V0.000232756ZM121.982 11.7252H130.627V15.4352H121.982V11.7252ZM160.865 0.0702339H165.52V32.4802H160.865V0.0702339ZM145.78 5.14523H149.455V8.05023C149.455 10.0102 149.268 11.9352 148.895 13.8252C148.545 15.6919 148.02 17.4536 147.32 19.1102C146.62 20.7436 145.733 22.2019 144.66 23.4852C143.61 24.7452 142.361 25.7719 140.915 26.5652L137.94 22.9952C139.27 22.3419 140.425 21.4786 141.405 20.4052C142.385 19.3319 143.201 18.1186 143.855 16.7652C144.508 15.4119 144.986 14.0002 145.29 12.5302C145.616 11.0369 145.78 9.54357 145.78 8.05023V5.14523ZM146.865 5.14523H150.505V8.05023C150.505 9.31023 150.668 10.6286 150.995 12.0052C151.321 13.3586 151.811 14.6886 152.465 15.9952C153.141 17.3019 153.97 18.4802 154.95 19.5302C155.93 20.5802 157.073 21.4552 158.38 22.1552L155.685 25.7252C154.238 25.0019 152.966 24.0102 151.87 22.7502C150.773 21.4902 149.851 20.0669 149.105 18.4802C148.381 16.8702 147.821 15.1669 147.425 13.3702C147.051 11.5736 146.865 9.80023 146.865 8.05023V5.14523ZM139.2 3.15023H157.015V6.89523H139.2V3.15023ZM155.65 8.92523H164.015V12.7752H155.65V8.92523ZM155.65 15.7152H164.015V19.5652H155.65V15.7152ZM185.903 19.7402H189.403V20.8252C189.403 22.4586 189.146 24.0102 188.633 25.4802C188.119 26.9502 187.326 28.2452 186.253 29.3652C185.203 30.5086 183.826 31.3836 182.123 31.9902L179.883 28.5952C181.306 28.1052 182.461 27.4519 183.348 26.6352C184.234 25.8186 184.876 24.9086 185.273 23.9052C185.693 22.8786 185.903 21.8519 185.903 20.8252V19.7402ZM187.058 19.7402H190.383V20.8252C190.383 21.8519 190.569 22.8902 190.943 23.9402C191.339 24.9669 191.934 25.9119 192.728 26.7752C193.544 27.6386 194.618 28.3386 195.948 28.8752L194.058 32.3402C192.354 31.6869 190.989 30.7536 189.963 29.5402C188.936 28.3502 188.189 26.9969 187.723 25.4802C187.279 23.9402 187.058 22.3886 187.058 20.8252V19.7402ZM197.698 19.7402H201.023V20.8252C201.023 22.3186 200.789 23.8236 200.323 25.3402C199.879 26.8569 199.144 28.2336 198.118 29.4702C197.114 30.7069 195.761 31.6636 194.058 32.3402L192.168 28.8752C193.474 28.2919 194.536 27.5569 195.353 26.6702C196.169 25.7602 196.764 24.8036 197.138 23.8002C197.511 22.7736 197.698 21.7819 197.698 20.8252V19.7402ZM198.783 19.7402H202.283V20.8252C202.283 21.9219 202.481 22.9836 202.878 24.0102C203.298 25.0369 203.951 25.9469 204.838 26.7402C205.724 27.5336 206.879 28.1519 208.303 28.5952L206.063 31.9902C204.359 31.4069 202.971 30.5552 201.898 29.4352C200.824 28.3386 200.031 27.0552 199.518 25.5852C199.028 24.0919 198.783 22.5052 198.783 20.8252V19.7402ZM200.883 0.0702339H205.538V18.4102H200.883V0.0702339ZM187.898 1.71523C189.578 1.71523 191.083 2.05357 192.413 2.73023C193.743 3.38357 194.793 4.29357 195.563 5.46023C196.333 6.6269 196.718 7.96857 196.718 9.48523C196.718 11.0019 196.333 12.3436 195.563 13.5102C194.793 14.6769 193.743 15.5986 192.413 16.2752C191.083 16.9286 189.578 17.2552 187.898 17.2552C186.218 17.2552 184.713 16.9286 183.383 16.2752C182.053 15.5986 181.003 14.6769 180.233 13.5102C179.463 12.3436 179.078 11.0019 179.078 9.48523C179.078 7.96857 179.463 6.6269 180.233 5.46023C181.003 4.29357 182.053 3.38357 183.383 2.73023C184.713 2.05357 186.218 1.71523 187.898 1.71523ZM187.898 5.56523C187.104 5.56523 186.381 5.72857 185.728 6.05523C185.074 6.35857 184.561 6.8019 184.188 7.38523C183.814 7.94523 183.628 8.64523 183.628 9.48523C183.628 10.3019 183.814 11.0136 184.188 11.6202C184.561 12.2036 185.074 12.6469 185.728 12.9502C186.381 13.2536 187.104 13.4052 187.898 13.4052C188.714 13.4052 189.438 13.2536 190.068 12.9502C190.721 12.6469 191.234 12.2036 191.608 11.6202C191.981 11.0136 192.168 10.3019 192.168 9.48523C192.168 8.64523 191.981 7.94523 191.608 7.38523C191.234 6.8019 190.721 6.35857 190.068 6.05523C189.438 5.72857 188.714 5.56523 187.898 5.56523ZM214.425 8.78523H236.895V12.4952H214.425V8.78523ZM210.82 15.8552H240.15V19.5652H210.82V15.8552ZM214.425 1.19023H219.08V10.6402H214.425V1.19023ZM214.145 28.0352H237.07V31.7802H214.145V28.0352ZM214.145 22.1202H218.8V29.0502H214.145V22.1202ZM8.715 44.5552H12.46V49.2452C12.46 51.2519 12.285 53.2119 11.935 55.1252C11.585 57.0152 11.0367 58.7769 10.29 60.4102C9.56667 62.0436 8.645 63.5019 7.525 64.7852C6.405 66.0452 5.08667 67.0486 3.57 67.7952L0.77 64.0502C2.14667 63.4202 3.325 62.5802 4.305 61.5302C5.30833 60.4802 6.13667 59.2902 6.79 57.9602C7.44333 56.6302 7.92167 55.2302 8.225 53.7602C8.55167 52.2669 8.715 50.7619 8.715 49.2452V44.5552ZM9.625 44.5552H13.37V49.2452C13.37 50.7152 13.51 52.1619 13.79 53.5852C14.0933 55.0086 14.5483 56.3619 15.155 57.6452C15.785 58.9052 16.5667 60.0369 17.5 61.0402C18.4333 62.0436 19.5533 62.8719 20.86 63.5252L18.025 67.2352C16.5783 66.4886 15.3183 65.5086 14.245 64.2952C13.195 63.0586 12.3317 61.6469 11.655 60.0602C10.9783 58.4502 10.465 56.7352 10.115 54.9152C9.78833 53.0719 9.625 51.1819 9.625 49.2452V44.5552ZM22.12 42.0702H26.81V74.4802H22.12V42.0702ZM25.795 54.5302H31.5V58.3802H25.795V54.5302ZM54.4573 42.0352H59.1123V61.4602H54.4573V42.0352ZM57.8173 49.5952H63.4173V53.4102H57.8173V49.5952ZM34.7873 56.4902H37.5173C39.6406 56.4902 41.5306 56.4669 43.1873 56.4202C44.8673 56.3736 46.4189 56.2802 47.8423 56.1402C49.2889 55.9769 50.7589 55.7669 52.2523 55.5102L52.6723 59.2202C51.1789 59.5002 49.6739 59.7219 48.1573 59.8852C46.6639 60.0252 45.0539 60.1186 43.3273 60.1652C41.6239 60.2119 39.6873 60.2352 37.5173 60.2352H34.7873V56.4902ZM34.7173 43.9602H49.5223V53.7252H39.3723V58.7652H34.7873V50.2602H44.9373V47.6702H34.7173V43.9602ZM48.4723 62.1602C50.7356 62.1602 52.6839 62.4052 54.3173 62.8952C55.9739 63.3852 57.2339 64.0852 58.0973 64.9952C58.9839 65.9052 59.4273 67.0136 59.4273 68.3202C59.4273 70.2569 58.4473 71.7619 56.4873 72.8352C54.5506 73.9319 51.8789 74.4802 48.4723 74.4802C46.2323 74.4802 44.2839 74.2352 42.6273 73.7452C40.9939 73.2786 39.7339 72.5786 38.8473 71.6452C37.9606 70.7119 37.5173 69.6036 37.5173 68.3202C37.5173 67.0136 37.9606 65.9052 38.8473 64.9952C39.7339 64.0852 40.9939 63.3852 42.6273 62.8952C44.2839 62.4052 46.2323 62.1602 48.4723 62.1602ZM48.4723 65.6952C47.0723 65.6952 45.8939 65.7886 44.9373 65.9752C44.0039 66.1619 43.2923 66.4536 42.8023 66.8502C42.3356 67.2469 42.1023 67.7369 42.1023 68.3202C42.1023 68.9269 42.3356 69.4286 42.8023 69.8252C43.2923 70.1986 44.0039 70.4786 44.9373 70.6652C45.8939 70.8519 47.0723 70.9452 48.4723 70.9452C49.8956 70.9452 51.0739 70.8519 52.0073 70.6652C52.9639 70.4786 53.6756 70.1986 54.1423 69.8252C54.6323 69.4286 54.8773 68.9269 54.8773 68.3202C54.8773 67.7369 54.6323 67.2469 54.1423 66.8502C53.6756 66.4536 52.9639 66.1619 52.0073 65.9752C51.0739 65.7886 49.8956 65.6952 48.4723 65.6952ZM86.5845 42.0702H91.2395V74.4802H86.5845V42.0702ZM90.1895 54.7052H95.8945V58.5552H90.1895V54.7052ZM65.6545 46.8302H84.5545V50.5402H65.6545V46.8302ZM75.1745 52.3952C76.7379 52.3952 78.1379 52.7336 79.3745 53.4102C80.6112 54.0636 81.5795 54.9619 82.2795 56.1052C83.0029 57.2486 83.3645 58.5786 83.3645 60.0952C83.3645 61.6119 83.0029 62.9536 82.2795 64.1202C81.5795 65.2636 80.6112 66.1736 79.3745 66.8502C78.1612 67.5036 76.7612 67.8302 75.1745 67.8302C73.6112 67.8302 72.1995 67.5036 70.9395 66.8502C69.7029 66.1736 68.7229 65.2636 67.9995 64.1202C67.2995 62.9536 66.9495 61.6119 66.9495 60.0952C66.9495 58.5786 67.2995 57.2486 67.9995 56.1052C68.7229 54.9619 69.7029 54.0636 70.9395 53.4102C72.1995 52.7336 73.6112 52.3952 75.1745 52.3952ZM75.1745 56.1752C74.4279 56.1752 73.7745 56.3269 73.2145 56.6302C72.6545 56.9336 72.2112 57.3769 71.8845 57.9602C71.5579 58.5436 71.3945 59.2552 71.3945 60.0952C71.3945 60.9119 71.5579 61.6236 71.8845 62.2302C72.2112 62.8136 72.6545 63.2686 73.2145 63.5952C73.7745 63.8986 74.4279 64.0502 75.1745 64.0502C75.8979 64.0502 76.5395 63.8986 77.0995 63.5952C77.6595 63.2686 78.1029 62.8136 78.4295 62.2302C78.7562 61.6236 78.9195 60.9119 78.9195 60.0952C78.9195 59.2552 78.7562 58.5436 78.4295 57.9602C78.1029 57.3769 77.6595 56.9336 77.0995 56.6302C76.5395 56.3269 75.8979 56.1752 75.1745 56.1752ZM72.7945 42.5952H77.4845V48.2652H72.7945V42.5952ZM101.632 50.7852H124.102V54.4952H101.632V50.7852ZM98.0268 57.8552H127.357V61.5652H98.0268V57.8552ZM101.632 43.1902H106.287V52.6402H101.632V43.1902ZM101.352 70.0352H124.277V73.7802H101.352V70.0352ZM101.352 64.1202H106.007V71.0502H101.352V64.1202ZM145.605 44.5552H149.35V49.2452C149.35 51.2519 149.175 53.2119 148.825 55.1252C148.475 57.0152 147.926 58.7769 147.18 60.4102C146.456 62.0436 145.535 63.5019 144.415 64.7852C143.295 66.0452 141.976 67.0486 140.46 67.7952L137.66 64.0502C139.036 63.4202 140.215 62.5802 141.195 61.5302C142.198 60.4802 143.026 59.2902 143.68 57.9602C144.333 56.6302 144.811 55.2302 145.115 53.7602C145.441 52.2669 145.605 50.7619 145.605 49.2452V44.5552ZM146.515 44.5552H150.26V49.2452C150.26 50.7152 150.4 52.1619 150.68 53.5852C150.983 55.0086 151.438 56.3619 152.045 57.6452C152.675 58.9052 153.456 60.0369 154.39 61.0402C155.323 62.0436 156.443 62.8719 157.75 63.5252L154.915 67.2352C153.468 66.4886 152.208 65.5086 151.135 64.2952C150.085 63.0586 149.221 61.6469 148.545 60.0602C147.868 58.4502 147.355 56.7352 147.005 54.9152C146.678 53.0719 146.515 51.1819 146.515 49.2452V44.5552ZM159.01 42.0702H163.7V74.4802H159.01V42.0702ZM162.685 54.5302H168.39V58.3802H162.685V54.5302ZM191.347 42.0702H196.002V61.3202H191.347V42.0702ZM194.707 49.7002H200.307V53.5152H194.707V49.7002ZM174.932 62.7202H196.002V74.1302H174.932V62.7202ZM191.487 66.3252H179.517V70.4552H191.487V66.3252ZM171.677 56.4202H174.407C176.53 56.4202 178.42 56.3969 180.077 56.3502C181.757 56.3036 183.309 56.2102 184.732 56.0702C186.179 55.9302 187.649 55.7202 189.142 55.4402L189.562 59.1502C188.069 59.4302 186.564 59.6519 185.047 59.8152C183.554 59.9552 181.944 60.0486 180.217 60.0952C178.514 60.1419 176.577 60.1652 174.407 60.1652H171.677V56.4202ZM171.607 43.6802H186.412V53.5502H176.262V58.4852H171.677V50.0852H181.827V47.3552H171.607V43.6802ZM202.754 54.6002H232.049V58.2752H202.754V54.6002ZM206.359 49.2102H228.584V52.8852H206.359V49.2102ZM206.359 42.6652H228.304V46.3402H210.979V52.3952H206.359V42.6652ZM206.044 60.0952H228.444V68.7052H210.699V71.4702H206.079V65.4152H223.859V63.6302H206.044V60.0952ZM206.079 70.6302H229.319V74.2002H206.079V70.6302ZM249.581 42.4902C253.268 42.4902 256.138 42.9686 258.191 43.9252C260.268 44.8819 261.306 46.2586 261.306 48.0552C261.306 49.8286 260.268 51.1936 258.191 52.1502C256.138 53.1069 253.268 53.5852 249.581 53.5852C245.871 53.5852 242.978 53.1069 240.901 52.1502C238.848 51.1936 237.821 49.8286 237.821 48.0552C237.821 46.2586 238.848 44.8819 240.901 43.9252C242.978 42.9686 245.871 42.4902 249.581 42.4902ZM249.546 45.9202C248.006 45.9202 246.723 46.0019 245.696 46.1652C244.67 46.3052 243.9 46.5386 243.386 46.8652C242.896 47.1686 242.651 47.5652 242.651 48.0552C242.651 48.5452 242.896 48.9536 243.386 49.2802C243.9 49.5836 244.67 49.8052 245.696 49.9452C246.723 50.0852 248.006 50.1552 249.546 50.1552C251.11 50.1552 252.405 50.0852 253.431 49.9452C254.458 49.8052 255.216 49.5836 255.706 49.2802C256.196 48.9536 256.441 48.5452 256.441 48.0552C256.441 47.5652 256.196 47.1686 255.706 46.8652C255.216 46.5386 254.458 46.3052 253.431 46.1652C252.405 46.0019 251.11 45.9202 249.546 45.9202ZM234.881 55.0902H264.211V58.7652H234.881V55.0902ZM238.241 60.5852H260.641V68.8802H242.896V71.7502H238.276V65.6602H256.056V64.0152H238.241V60.5852ZM238.276 70.7352H261.516V74.2702H238.276V70.7352ZM22.12 84.0002H26.81V116.515H22.12V84.0002ZM25.795 96.0052H31.5V99.8552H25.795V96.0052ZM2.66 104.895H5.39C7.23333 104.895 8.96 104.872 10.57 104.825C12.18 104.755 13.7433 104.65 15.26 104.51C16.7767 104.347 18.3283 104.125 19.915 103.845L20.37 107.695C18.7367 107.975 17.1267 108.197 15.54 108.36C13.9767 108.524 12.3667 108.629 10.71 108.675C9.05333 108.722 7.28 108.745 5.39 108.745H2.66V104.895ZM2.66 87.0102H17.78V90.7552H7.315V106.715H2.66V87.0102ZM41.5073 86.5552H45.3223V91.2452C45.3223 93.3452 45.1356 95.3636 44.7623 97.3002C44.3889 99.2136 43.8173 101.01 43.0473 102.69C42.3006 104.347 41.3323 105.817 40.1423 107.1C38.9756 108.36 37.5873 109.364 35.9773 110.11L33.2123 106.26C34.6356 105.63 35.8606 104.802 36.8873 103.775C37.9373 102.725 38.8006 101.535 39.4773 100.205C40.1539 98.8519 40.6556 97.4169 40.9823 95.9002C41.3323 94.3836 41.5073 92.8319 41.5073 91.2452V86.5552ZM42.4173 86.5552H46.1973V91.2452C46.1973 92.7619 46.3606 94.2436 46.6873 95.6902C47.0139 97.1369 47.5039 98.5019 48.1573 99.7852C48.8339 101.069 49.6739 102.212 50.6773 103.215C51.7039 104.195 52.9056 104.977 54.2823 105.56L51.5873 109.34C50.0239 108.617 48.6589 107.649 47.4923 106.435C46.3489 105.222 45.4039 103.822 44.6573 102.235C43.9106 100.625 43.3506 98.8986 42.9773 97.0552C42.6039 95.1886 42.4173 93.2519 42.4173 91.2452V86.5552ZM55.8573 84.0002H60.5123V116.515H55.8573V84.0002ZM94.6151 84.0002H99.3051V116.41H94.6151V84.0002ZM98.1151 96.4252H103.82V100.24H98.1151V96.4252ZM86.1101 87.3602H90.6951C90.6951 90.6036 90.2285 93.6719 89.2951 96.5652C88.3851 99.4586 86.8685 102.119 84.7451 104.545C82.6451 106.949 79.7985 109.049 76.2051 110.845L73.5801 107.31C76.4268 105.84 78.7718 104.184 80.6151 102.34C82.4818 100.497 83.8585 98.4086 84.7451 96.0752C85.6551 93.7186 86.1101 91.0936 86.1101 88.2002V87.3602ZM75.3651 87.3602H88.5251V91.1052H75.3651V87.3602ZM117.572 87.0452H121.702V87.8152C121.702 88.8186 121.527 89.7752 121.177 90.6852C120.827 91.5719 120.302 92.4119 119.602 93.2052C118.926 93.9752 118.074 94.6636 117.047 95.2702C116.021 95.8769 114.831 96.3902 113.477 96.8102C112.147 97.2069 110.654 97.4869 108.997 97.6502L107.352 94.0102C108.752 93.8702 110.001 93.6602 111.097 93.3802C112.217 93.0769 113.186 92.7152 114.002 92.2952C114.819 91.8752 115.484 91.4202 115.997 90.9302C116.534 90.4402 116.931 89.9269 117.187 89.3902C117.444 88.8536 117.572 88.3286 117.572 87.8152V87.0452ZM119.847 87.0452H123.942V87.8152C123.942 88.3519 124.071 88.8886 124.327 89.4252C124.607 89.9386 125.004 90.4519 125.517 90.9652C126.031 91.4552 126.684 91.9102 127.477 92.3302C128.294 92.7269 129.251 93.0769 130.347 93.3802C131.467 93.6602 132.739 93.8702 134.162 94.0102L132.552 97.6502C130.872 97.4869 129.356 97.2069 128.002 96.8102C126.672 96.3902 125.494 95.8769 124.467 95.2702C123.464 94.6636 122.612 93.9752 121.912 93.2052C121.236 92.4352 120.722 91.5952 120.372 90.6852C120.022 89.7752 119.847 88.8186 119.847 87.8152V87.0452ZM108.787 85.2602H132.797V88.9002H108.787V85.2602ZM106.092 99.8202H135.457V103.53H106.092V99.8202ZM118.377 95.6552H123.032V101.465H118.377V95.6552ZM109.347 105.84H131.887V116.48H127.232V109.515H109.347V105.84ZM148.755 86.2052C150.435 86.2052 151.951 86.5436 153.305 87.2202C154.658 87.8969 155.72 88.8419 156.49 90.0552C157.26 91.2452 157.645 92.6219 157.645 94.1852C157.645 95.7252 157.26 97.1019 156.49 98.3152C155.72 99.5286 154.658 100.474 153.305 101.15C151.951 101.827 150.435 102.165 148.755 102.165C147.051 102.165 145.523 101.827 144.17 101.15C142.816 100.474 141.743 99.5286 140.95 98.3152C140.18 97.1019 139.795 95.7252 139.795 94.1852C139.795 92.6219 140.18 91.2452 140.95 90.0552C141.743 88.8419 142.816 87.8969 144.17 87.2202C145.523 86.5436 147.051 86.2052 148.755 86.2052ZM148.755 90.1952C147.915 90.1952 147.156 90.3586 146.48 90.6852C145.826 90.9886 145.301 91.4436 144.905 92.0502C144.531 92.6336 144.345 93.3452 144.345 94.1852C144.345 95.0252 144.531 95.7486 144.905 96.3552C145.301 96.9619 145.826 97.4286 146.48 97.7552C147.156 98.0586 147.915 98.2102 148.755 98.2102C149.571 98.2102 150.306 98.0586 150.96 97.7552C151.613 97.4286 152.126 96.9619 152.5 96.3552C152.896 95.7486 153.095 95.0252 153.095 94.1852C153.095 93.3452 152.896 92.6336 152.5 92.0502C152.126 91.4436 151.613 90.9886 150.96 90.6852C150.306 90.3586 149.571 90.1952 148.755 90.1952ZM160.69 84.0002H165.345V116.515H160.69V84.0002ZM138.99 109.97L138.465 106.19C140.355 106.19 142.443 106.179 144.73 106.155C147.04 106.109 149.408 106.015 151.835 105.875C154.285 105.712 156.653 105.467 158.94 105.14L159.255 108.5C156.921 108.967 154.553 109.305 152.15 109.515C149.746 109.702 147.425 109.83 145.185 109.9C142.945 109.947 140.88 109.97 138.99 109.97Z" fill="white"/>
<defs>
<linearGradient id="paint0_linear_1462_158" x1="297.628" y1="70.3208" x2="297.628" y2="132.923" gradientUnits="userSpaceOnUse">
<stop stop-color="#1D70D5"/>
<stop offset="1" stop-color="#00FFE3"/>
</linearGradient>
</defs>
</svg>
